<mxfile host="app.diagrams.net" modified="2021-02-04T14:35:10.972Z" agent="5.0 (X11; Linux x86_64) AppleWebKit/537.36 (KHTML, like Gecko) Chrome/88.0.4324.96 Safari/537.36" etag="fmYXxYMr6U1WH34UtHmi" version="14.2.7" type="github">
  <diagram id="xhCaqf5FaArxFptGwSZM" name="Page-1">
    <mxGraphModel dx="782" dy="480" grid="1" gridSize="10" guides="1" tooltips="1" connect="1" arrows="1" fold="1" page="1" pageScale="1" pageWidth="827" pageHeight="1169" background="none" math="0" shadow="0">
      <root>
        <mxCell id="0" />
        <mxCell id="1" parent="0" />
        <mxCell id="TQLbrhSt6r9XaCd5zcp3-1" value="Name" style="text;html=1;strokeColor=none;fillColor=none;align=center;verticalAlign=middle;whiteSpace=wrap;rounded=1;" parent="1" vertex="1">
          <mxGeometry x="250" y="80" width="60" height="30" as="geometry" />
        </mxCell>
        <mxCell id="TQLbrhSt6r9XaCd5zcp3-2" value="Text" style="text;html=1;strokeColor=none;fillColor=none;align=center;verticalAlign=middle;whiteSpace=wrap;rounded=1;" parent="1" vertex="1">
          <mxGeometry x="240" y="120" width="60" height="20" as="geometry" />
        </mxCell>
        <mxCell id="TQLbrhSt6r9XaCd5zcp3-4" value="Text" style="text;html=1;strokeColor=none;fillColor=none;align=center;verticalAlign=middle;whiteSpace=wrap;rounded=1;" parent="1" vertex="1">
          <mxGeometry x="240" y="150" width="60" height="20" as="geometry" />
        </mxCell>
        <mxCell id="zXQB7tVFWBWooae36YqB-4" value="" style="whiteSpace=wrap;html=1;rounded=1;" vertex="1" parent="1">
          <mxGeometry x="310" y="87.5" width="110" height="15" as="geometry" />
        </mxCell>
        <mxCell id="zXQB7tVFWBWooae36YqB-5" value="" style="whiteSpace=wrap;html=1;rounded=1;" vertex="1" parent="1">
          <mxGeometry x="310" y="122.5" width="110" height="15" as="geometry" />
        </mxCell>
        <mxCell id="zXQB7tVFWBWooae36YqB-6" value="" style="whiteSpace=wrap;html=1;rounded=1;" vertex="1" parent="1">
          <mxGeometry x="310" y="152.5" width="110" height="15" as="geometry" />
        </mxCell>
        <mxCell id="zXQB7tVFWBWooae36YqB-7" value="" style="whiteSpace=wrap;html=1;rounded=1;" vertex="1" parent="1">
          <mxGeometry x="310" y="180" width="110" height="15" as="geometry" />
        </mxCell>
        <mxCell id="zXQB7tVFWBWooae36YqB-8" value="" style="whiteSpace=wrap;html=1;rounded=1;" vertex="1" parent="1">
          <mxGeometry x="310" y="210" width="110" height="15" as="geometry" />
        </mxCell>
        <mxCell id="zXQB7tVFWBWooae36YqB-9" value="" style="whiteSpace=wrap;html=1;rounded=1;" vertex="1" parent="1">
          <mxGeometry x="310" y="240" width="110" height="15" as="geometry" />
        </mxCell>
        <mxCell id="zXQB7tVFWBWooae36YqB-10" value="" style="whiteSpace=wrap;html=1;rounded=1;" vertex="1" parent="1">
          <mxGeometry x="310" y="270" width="110" height="15" as="geometry" />
        </mxCell>
        <mxCell id="zXQB7tVFWBWooae36YqB-11" value="" style="whiteSpace=wrap;html=1;rounded=1;" vertex="1" parent="1">
          <mxGeometry x="310" y="300" width="110" height="15" as="geometry" />
        </mxCell>
        <mxCell id="zXQB7tVFWBWooae36YqB-12" value="" style="whiteSpace=wrap;html=1;rounded=1;" vertex="1" parent="1">
          <mxGeometry x="310" y="330" width="110" height="15" as="geometry" />
        </mxCell>
        <mxCell id="zXQB7tVFWBWooae36YqB-13" value="" style="whiteSpace=wrap;html=1;rounded=1;" vertex="1" parent="1">
          <mxGeometry x="310" y="360" width="110" height="15" as="geometry" />
        </mxCell>
        <mxCell id="zXQB7tVFWBWooae36YqB-14" value="Text" style="text;html=1;strokeColor=none;fillColor=none;align=center;verticalAlign=middle;whiteSpace=wrap;rounded=1;" vertex="1" parent="1">
          <mxGeometry x="240" y="180" width="60" height="20" as="geometry" />
        </mxCell>
        <mxCell id="zXQB7tVFWBWooae36YqB-15" value="Text" style="text;html=1;strokeColor=none;fillColor=none;align=center;verticalAlign=middle;whiteSpace=wrap;rounded=1;" vertex="1" parent="1">
          <mxGeometry x="240" y="210" width="60" height="20" as="geometry" />
        </mxCell>
        <mxCell id="zXQB7tVFWBWooae36YqB-16" value="Text" style="text;html=1;strokeColor=none;fillColor=none;align=center;verticalAlign=middle;whiteSpace=wrap;rounded=1;" vertex="1" parent="1">
          <mxGeometry x="240" y="237.5" width="60" height="20" as="geometry" />
        </mxCell>
        <mxCell id="zXQB7tVFWBWooae36YqB-17" value="Text" style="text;html=1;strokeColor=none;fillColor=none;align=center;verticalAlign=middle;whiteSpace=wrap;rounded=1;" vertex="1" parent="1">
          <mxGeometry x="240" y="265" width="60" height="20" as="geometry" />
        </mxCell>
        <mxCell id="zXQB7tVFWBWooae36YqB-18" value="Text" style="text;html=1;strokeColor=none;fillColor=none;align=center;verticalAlign=middle;whiteSpace=wrap;rounded=1;" vertex="1" parent="1">
          <mxGeometry x="240" y="295" width="60" height="20" as="geometry" />
        </mxCell>
        <mxCell id="zXQB7tVFWBWooae36YqB-19" value="Text" style="text;html=1;strokeColor=none;fillColor=none;align=center;verticalAlign=middle;whiteSpace=wrap;rounded=1;" vertex="1" parent="1">
          <mxGeometry x="240" y="325" width="60" height="20" as="geometry" />
        </mxCell>
        <mxCell id="zXQB7tVFWBWooae36YqB-20" value="Text" style="text;html=1;strokeColor=none;fillColor=none;align=center;verticalAlign=middle;whiteSpace=wrap;rounded=1;" vertex="1" parent="1">
          <mxGeometry x="240" y="355" width="60" height="20" as="geometry" />
        </mxCell>
      </root>
    </mxGraphModel>
  </diagram>
</mxfile>
